<svg id="Layer_1" data-name="Layer 1" xmlns="http://www.w3.org/2000/svg" viewBox="0 0 512 512"><defs><style>.cls-1{fill:#0d2538;}.cls-2{fill:#f0efef;}.cls-3{fill:#e12a43;}</style></defs><title>logo</title><rect class="cls-1" width="512" height="512" rx="256"/><polygon class="cls-2" points="289.66 173.75 256 232.04 222.34 173.75 110.26 173.75 256 426.18 401.74 173.75 289.66 173.75"/><path class="cls-3" d="M322.52,173.75c-2.21-40-34.72-59.78-34.72-59.78,11.26-13.06,2.93-28.15,2.93-28.15s-.9,13.06-29.72,20.27-32.43,26.57-32.43,26.57c-27,13.28-13.51,26.79-13.51,26.79,4.05-8.1,52.47-11.48,48.19,18.24C261,193.24,249.6,200,239.22,203l-16.88-29.23H168.56L256,325.2l87.44-151.45Zm-66.59,58.17.1.07,0,0Z"/></svg>