<svg id="Layer_1" data-name="Layer 1" xmlns="http://www.w3.org/2000/svg" viewBox="0 0 512 512"><defs><style>.cls-1{fill:#f0efef;}.cls-2{fill:#e12a43;}</style></defs><title>logo</title><polygon class="cls-1" points="305.88 141.3 258.51 223.34 211.14 141.3 53.41 141.3 258.51 496.55 463.62 141.3 305.88 141.3"/><path class="cls-2" d="M352.12,141.3C349,85,303.26,57.17,303.26,57.17c15.85-18.38,4.12-39.61,4.12-39.61s-1.26,18.38-41.83,28.52-45.63,37.4-45.63,37.4c-38,18.69-19,37.71-19,37.71,5.7-11.41,73.83-16.17,67.81,25.66-3.15,21.88-19.21,31.44-33.82,35.59L211.14,141.3H135.45L258.51,354.45,381.57,141.3Zm-93.71,81.86.14.11,0,.07Z"/></svg>