<svg id="Layer_1" data-name="Layer 1" xmlns="http://www.w3.org/2000/svg" xmlns:xlink="http://www.w3.org/1999/xlink" viewBox="0 0 1024 512.87"><defs><style>.cls-1{fill:url(#linear-gradient);}.cls-2{fill:url(#linear-gradient-2);}.cls-3{fill:url(#linear-gradient-3);}.cls-4{fill:url(#linear-gradient-4);}</style><linearGradient id="linear-gradient" y1="458.59" x2="1024" y2="458.59" gradientUnits="userSpaceOnUse"><stop offset="0" stop-color="#f0efef"/><stop offset="1" stop-color="#e2e0e0"/></linearGradient><linearGradient id="linear-gradient-2" y1="458.59" x2="1024" y2="458.59" gradientUnits="userSpaceOnUse"><stop offset="0" stop-color="#d45656"/><stop offset="1" stop-color="#f26667"/></linearGradient><linearGradient id="linear-gradient-3" x1="947.63" y1="57.26" y2="57.26" xlink:href="#linear-gradient"/><linearGradient id="linear-gradient-4" x1="762.89" y1="19.77" x2="998.41" y2="19.77" xlink:href="#linear-gradient-2"/></defs><title>wave</title><path class="cls-1" d="M1024,405.18c-53.84,6.23-119.29,60.78-237.81,80.11-156.26,25.5-207.36-42.44-388.93-67.18C255.57,398.81,109.17,416,0,448.56V512H1024Z" transform="translate(0 0.87)"/><path class="cls-2" d="M0,405.18c53.84,6.23,119.29,60.78,237.81,80.11,156.26,25.5,207.36-42.44,388.93-67.18,141.69-19.3,288.09-2.1,397.26,30.45V512H0Z" transform="translate(0 0.87)"/><path class="cls-3" d="M1024,114.51V0H947.63A190.26,190.26,0,0,0,1024,114.51Z" transform="translate(0 0.87)"/><path class="cls-4" d="M998.41.24,997-.87H762.89A190.61,190.61,0,0,0,998.41.24Z" transform="translate(0 0.87)"/></svg>